<svg xmlns="http://www.w3.org/2000/svg" width="24.204" height="20.614" viewBox="0 0 24.204 20.614">
  <g id="scooter" transform="translate(0 -37.976)">
    <path id="Trazado_560" data-name="Trazado 560" d="M32.307,175.609H15.319V173.4a4.774,4.774,0,0,1,4.774-4.774H24.02l1.027,3.471a.747.747,0,0,0,.716.535h2.865a.747.747,0,0,0,.747-.747v-4.035a3.27,3.27,0,0,1,3.27-3.27l1.1,5.231h1.267c1.67,0,2.327,1.234,2.327,2.9l-.323.025h-1.44Z" transform="translate(-14.595 -120.62)"/>
    <path id="Trazado_561" data-name="Trazado 561" d="M263.956,169.811h-1.267l-1.1-5.231a3.27,3.27,0,0,0-3.27,3.27v4.035a.747.747,0,0,1-.747.747H255.62v2.976h5.628l3.272-2.867h1.83a.563.563,0,0,0,.551-.688A2.97,2.97,0,0,0,263.956,169.811Z" transform="translate(-243.536 -120.619)"/>
    <g id="Grupo_112" data-name="Grupo 112" transform="translate(19.153 49.192)">
      <path id="Trazado_562" data-name="Trazado 562" d="M408.987,278.171a.415.415,0,0,0,.411-.479,2.96,2.96,0,0,0-2.986-2.451h-1.267v4.534l1.831-1.6Z" transform="translate(-405.144 -275.241)"/>
    </g>
    <g id="Grupo_113" data-name="Grupo 113" transform="translate(1.267 54.28)">
      <path id="Trazado_563" data-name="Trazado 563" d="M47.591,397.855a2.892,2.892,0,1,1-5.784,0" transform="translate(-41.098 -397.146)" opacity="0.001"/>
      <path id="Trazado_564" data-name="Trazado 564" d="M30.408,387.164a3.6,3.6,0,0,1-3.6-3.6.709.709,0,0,1,1.418,0,2.183,2.183,0,1,0,4.365,0,.709.709,0,0,1,1.418,0A3.6,3.6,0,0,1,30.408,387.164Z" transform="translate(-26.807 -382.854)"/>
    </g>
    <path id="Trazado_565" data-name="Trazado 565" d="M23.675,190.865H15.841a1.471,1.471,0,0,1,0-2.943h6.389a2.194,2.194,0,0,1,2.194,2.194A.749.749,0,0,1,23.675,190.865Z" transform="translate(-13.691 -142.857)"/>
    <path id="Trazado_566" data-name="Trazado 566" d="M4.9,308.59a.479.479,0,0,1-.476-.526A4.553,4.553,0,0,1,9,303.771a4.725,4.725,0,0,1,4.74,4.289.479.479,0,0,1-.475.53Z" transform="translate(-4.214 -253.23)"/>
    <g id="Grupo_114" data-name="Grupo 114" transform="translate(0 40.882)">
      <path id="Trazado_567" data-name="Trazado 567" d="M7.069,100.861H.709a.709.709,0,0,1,0-1.418h6.36a.709.709,0,0,1,0,1.418Z" transform="translate(0 -99.443)"/>
    </g>
    <g id="Grupo_115" data-name="Grupo 115" transform="translate(2.356 37.976)">
      <path id="Trazado_568" data-name="Trazado 568" d="M56.957,39.394H50.542a.709.709,0,0,1,0-1.418h6.415a.709.709,0,1,1,0,1.418Z" transform="translate(-49.833 -37.976)"/>
    </g>
    <g id="Grupo_116" data-name="Grupo 116" transform="translate(12.054 41.946)">
      <path id="Trazado_569" data-name="Trazado 569" d="M258.134,123.373h-2.452a.709.709,0,0,1,0-1.418h2.452a.709.709,0,0,1,0,1.418Z" transform="translate(-254.973 -121.955)"/>
    </g>
    <path id="Trazado_570" data-name="Trazado 570" d="M305.281,94.465h-3.564a.619.619,0,0,0-.619.619v2.779a.619.619,0,0,0,.619.619h3.564a2.009,2.009,0,0,0,0-4.017Z" transform="translate(-286.864 -53.819)"/>
    <circle id="Elipse_62" data-name="Elipse 62" cx="2.892" cy="2.892" r="2.892" transform="translate(17.712 52.097)"/>
    <g id="Grupo_117" data-name="Grupo 117" transform="translate(17.003 51.388)">
      <path id="Trazado_571" data-name="Trazado 571" d="M363.261,328.887a3.6,3.6,0,1,1,3.6-3.6A3.605,3.605,0,0,1,363.261,328.887Zm0-5.784a2.183,2.183,0,1,0,2.183,2.183A2.185,2.185,0,0,0,363.261,323.1Z" transform="translate(-359.66 -321.685)"/>
      <circle id="Elipse_63" data-name="Elipse 63" cx="0.714" cy="0.714" r="0.714" transform="translate(2.887 2.887)" opacity="0"/>
    </g>
  </g>
</svg>
